<?xml version="1.0" encoding="UTF-8"?>
<svg width="464px" height="464px" viewBox="0 0 464 464" version="1.1" xmlns="http://www.w3.org/2000/svg" xmlns:xlink="http://www.w3.org/1999/xlink">
    <title>Artboard</title>
    <g id="Artboard" stroke="none" stroke-width="1" fill="none" fill-rule="evenodd">
        <circle id="Oval" fill="#FFFFFF" cx="232" cy="232" r="232"></circle>
        <path d="M274.007634,277.431857 L274.007634,312 L339.599237,312 C382.614504,312 410,286.944796 410,250.634848 C410,220.086256 393.835878,195.968948 366.717557,185.518114 C366.583969,123.617021 321.965649,79 263.854962,79 C229.255725,79 201.335878,95.8821162 183.301527,121.47326 C149.236641,113.970098 112.5,139.025302 110.229008,177.211041 C79.1030534,183.374353 60,210.037378 60,243.26567 C60,281.317424 89.389313,312 134.942748,312 L193.187023,312 L193.187023,277.431857 L135.076336,277.431857 C109.828244,277.431857 95.2671756,261.487637 95.2671756,242.059804 C95.2671756,217.674526 112.232824,202.40023 137.881679,202.40023 C140.019084,202.40023 140.954198,201.32835 140.820611,199.184589 C138.549618,161.26682 165.400763,146.260495 196.125954,154.969523 C197.862595,155.505463 199.198473,155.103508 200,153.495687 C212.557252,129.914319 232.328244,113.568143 263.454198,113.568143 C302.862595,113.568143 331.717557,144.786659 333.721374,182.436458 C334.122137,191.011501 333.454198,199.854514 332.652672,206.553767 C332.385496,208.697527 333.187023,209.769408 335.19084,210.037378 C359.90458,213.654974 374.866412,226.249569 374.866412,247.419206 C374.866412,265.373203 363.110687,277.431857 338.129771,277.431857 L274.007634,277.431857 Z M232.932893,397 C237.227723,397 241.119912,395.53281 245.280528,391.664765 L289.839384,349.916548 C292.523652,347.24893 294,344.447932 294,340.446505 C294,332.843795 287.557756,327.64194 280.444444,327.64194 C276.686469,327.64194 273.062706,329.242511 270.378438,332.043509 L254.138614,348.449358 L246.354235,358.719686 L248.50165,339.246077 L248.50165,225.205421 C248.50165,217.069187 241.656766,210 232.932893,210 C224.343234,210 217.49835,217.069187 217.49835,225.205421 L217.49835,339.246077 L219.645765,358.719686 L211.727173,348.449358 L195.621562,332.043509 C192.937294,329.242511 189.313531,327.64194 185.421342,327.64194 C178.308031,327.64194 172,332.843795 172,340.446505 C172,344.447932 173.476348,347.24893 176.160616,349.916548 L220.719472,391.664765 C224.880088,395.53281 228.772277,397 232.932893,397 Z" id="Shape" fill="#44D7B6" fill-rule="nonzero"></path>
    </g>
</svg>